<?xml version="1.0" encoding="UTF-8" standalone="no"?>
<!-- Created with Inkscape (http://www.inkscape.org/) -->

<svg
   version="1.1"
   id="Logo"
   sodipodi:version="0.32"
   sodipodi:docname="Logo-Hochschule-Fulda_cropped_right.svg"
   inkscape:version="1.3.2 (091e20ef0f, 2023-11-25, custom)"
   inkscape:output_extension="org.inkscape.output.svg.inkscape"
   x="0px"
   y="0px"
   width="421.87573"
   height="98.496002"
   viewBox="0 0 421.87572 98.496"
   enable-background="new 0 0 436.92 98.496"
   xml:space="preserve"
   xmlns:inkscape="http://www.inkscape.org/namespaces/inkscape"
   xmlns:sodipodi="http://sodipodi.sourceforge.net/DTD/sodipodi-0.dtd"
   xmlns="http://www.w3.org/2000/svg"
   xmlns:svg="http://www.w3.org/2000/svg"
   xmlns:rdf="http://www.w3.org/1999/02/22-rdf-syntax-ns#"
   xmlns:cc="http://creativecommons.org/ns#"
   xmlns:dc="http://purl.org/dc/elements/1.1/"><metadata
   id="metadata2447"><rdf:RDF><cc:Work
       rdf:about=""><dc:format>image/svg+xml</dc:format><dc:type
         rdf:resource="http://purl.org/dc/dcmitype/StillImage" /></cc:Work></rdf:RDF></metadata><defs
   id="defs2445"><inkscape:perspective
     sodipodi:type="inkscape:persp3d"
     inkscape:vp_x="0 : 49.248001 : 1"
     inkscape:vp_y="0 : 1000 : 0"
     inkscape:vp_z="436.92001 : 49.248001 : 1"
     inkscape:persp3d-origin="218.46001 : 32.832001 : 1"
     id="perspective2449" /></defs><sodipodi:namedview
   inkscape:window-height="1388"
   inkscape:window-width="2560"
   inkscape:pageshadow="2"
   inkscape:pageopacity="0.0"
   guidetolerance="10.0"
   gridtolerance="10.0"
   objecttolerance="10.0"
   borderopacity="1.0"
   bordercolor="#666666"
   pagecolor="#ffffff"
   id="base"
   showgrid="false"
   inkscape:zoom="2.4901584"
   inkscape:cx="239.94458"
   inkscape:cy="93.568345"
   inkscape:window-x="0"
   inkscape:window-y="0"
   inkscape:current-layer="Logo"
   inkscape:showpageshadow="2"
   inkscape:pagecheckerboard="0"
   inkscape:deskcolor="#d1d1d1"
   inkscape:window-maximized="1" />
<path
   id="Hintergrund"
   fill="#ffffff"
   d="m 383.165,81.207 c 20.23,0 36.631,-16.401 36.631,-36.633 0,-20.229 -16.398,-36.629 -36.631,-36.629 -20.229,0 -36.63,16.399 -36.63,36.629 0,20.231 16.401,36.633 36.63,36.633" />
<path
   id="Ring"
   fill="#67cb33"
   d="m 383.165,6.546 c 21.003,0.002 38.025,17.026 38.027,38.03 v 0 c -0.002,21.001 -17.024,38.027 -38.027,38.027 v 0 c -21.004,0 -38.028,-17.025 -38.028,-38.027 v 0 c 0,-21.004 17.024,-38.028 38.028,-38.03 z m 0,2.798 c -9.735,0 -18.532,3.942 -24.914,10.319 v 0 c -6.377,6.381 -10.318,15.178 -10.318,24.914 v 0 c 0,9.732 3.941,18.532 10.318,24.913 v 0 c 6.382,6.377 15.179,10.316 24.914,10.319 v 0 c 9.732,-0.003 18.532,-3.942 24.911,-10.319 v 0 c 6.379,-6.381 10.318,-15.181 10.32,-24.913 v 0 c -0.002,-9.735 -3.941,-18.533 -10.32,-24.914 v 0 C 401.697,13.286 392.897,9.344 383.165,9.344 Z" />
<path
   id="Blaetter"
   fill="#67cb33"
   d="m 397.692,56.47 m -24.388,-35.004 -0.399,0.62 c 0.009,0.003 0.02,0.007 0.026,0.01 0.146,-0.203 0.288,-0.406 0.44,-0.606 -0.021,-0.009 -0.045,-0.017 -0.067,-0.024 m 27.456,21.722 c -0.624,0.059 -1.268,0.164 -1.911,0.309 0.222,3.116 0.082,8.043 -0.662,12.178 0.97,-0.282 1.901,-0.584 2.806,-0.94 0.6,-2.705 1.186,-8.558 1.239,-11.591 -0.626,0.002 -1.136,0.013 -1.472,0.044 m 2.207,-0.048 c 0.068,2.932 -0.173,7.75 -0.758,11.07 1,-0.463 1.962,-1.016 2.897,-1.691 0.436,-2.16 1.021,-6.919 1.102,-9.44 -1.174,0.05 -2.296,0.057 -3.241,0.061 m -8.308,2.049 c 0.207,3.174 0.313,7.271 -0.562,11.583 1.288,-0.285 1.619,-0.415 2.772,-0.731 0.719,-2.731 1.313,-9.087 1.29,-12.372 -1.208,0.335 -2.41,0.833 -3.5,1.52 m 12.297,-2.153 c -0.028,1.876 -0.288,6.061 -0.712,8.584 0.932,-0.798 1.837,-1.748 2.724,-2.89 0.406,-1.841 0.852,-4.818 0.899,-6.015 -0.941,0.164 -1.934,0.26 -2.911,0.321 m -16.452,13.253 c 0.174,0.84 1.173,0.985 2.31,0.772 0.78,-2.337 1.158,-7.967 1.202,-11.433 -2.768,2.034 -4.598,5.432 -3.512,10.661 m 22.558,-14.531 c -0.699,0.358 -1.547,0.622 -2.464,0.816 -0.025,1.113 -0.194,2.958 -0.38,4.398 0.959,-1.462 1.903,-3.178 2.844,-5.214 m -2.011,8.842 c 1.572,-0.14 2.926,-0.147 4.223,-0.058 0.015,-1.148 -0.018,-2.35 -0.128,-3.63 -0.959,0.327 -1.804,0.677 -2.405,1.017 -0.836,0.471 -1.191,-0.504 0.063,-1.041 0.806,-0.343 1.544,-0.612 2.245,-0.829 -0.145,-1.356 -0.345,-2.766 -0.639,-4.272 -0.084,-0.423 -0.376,-0.214 -0.567,0.19 -8.396,17.764 -15.81,13.467 -29.746,19.763 3.735,-5.945 5.31,-17.163 5.31,-17.163 4.391,-0.636 7.808,-2.984 9.868,-6.201 -2.843,1.101 -5.89,2.491 -7.991,4.059 -0.994,0.741 -1.445,-0.314 -0.018,-1.351 2.525,-1.828 5.78,-2.92 8.602,-3.725 0.979,-1.869 1.535,-3.976 1.598,-6.184 -3.383,1.606 -7.024,3.632 -10.063,6.41 -0.914,0.837 -1.66,-0.161 -0.313,-1.303 3.205,-2.713 7.284,-4.702 10.378,-5.926 -0.052,-1.9 -0.467,-3.859 -1.285,-5.791 -2.734,1.92 -5.924,4.061 -8.973,7.748 -0.792,0.955 -1.668,0.092 -0.514,-1.244 2.682,-3.099 6.424,-5.539 9.165,-7.215 -0.723,-1.504 -1.694,-2.985 -2.935,-4.4 -2.299,2.148 -4.207,3.807 -6.828,8.057 -0.65,1.054 -1.651,0.415 -0.676,-1.055 2.316,-3.49 4.653,-5.678 6.963,-7.596 -1.028,-1.089 -2.225,-2.132 -3.593,-3.111 -1.707,2.081 -3.471,4.438 -4.536,7.388 -0.396,1.107 -1.467,0.618 -0.718,-0.944 1.473,-3.079 2.966,-5.017 4.655,-6.865 -1.131,-0.767 -2.376,-1.489 -3.738,-2.161 -0.943,1.964 -1.702,3.915 -1.979,5.265 -0.235,1.154 -1.335,0.9 -0.822,-0.697 0.622,-1.921 1.45,-3.493 2.228,-4.843 -1.006,-0.476 -2.073,-0.92 -3.203,-1.336 -0.268,1.286 -0.427,2.497 -0.436,3.354 -0.01,1.009 -1.047,0.855 -0.874,-0.574 0.131,-1.089 0.369,-2.111 0.619,-3.027 -1.111,-0.386 -2.279,-0.744 -3.507,-1.067 -0.769,-0.201 -1.016,0.27 -0.978,0.281 -0.084,1.61 16.968,22.086 -0.43,50.598 -3.162,-8.658 -16.451,-0.228 -26.554,-24.293 -0.159,-0.38 -0.491,0.082 -0.735,0.615 -0.539,1.175 -0.979,2.337 -1.334,3.483 1.109,0.377 2.602,0.934 3.691,1.519 1.207,0.645 0.769,1.583 -0.023,1.042 -0.783,-0.537 -2.42,-1.241 -3.877,-1.811 -0.428,1.522 -0.708,3.014 -0.837,4.454 1.7,-0.172 4.234,-0.208 6.447,0.031 1.668,0.178 1.452,1.285 0.304,1.033 -1.502,-0.332 -4.343,-0.374 -6.8,-0.26 -0.094,1.65 -0.001,3.227 0.249,4.715 2.092,-0.697 5.604,-1.666 8.646,-1.818 1.676,-0.083 1.809,1.182 0.632,1.111 -1.848,-0.107 -6.293,0.787 -9.145,1.473 0.394,1.875 1.04,3.588 1.885,5.102 2.046,-1.327 5.955,-3.582 9.183,-4.561 1.689,-0.511 2.147,0.746 0.931,0.975 -1.972,0.369 -6.904,2.775 -9.709,4.263 0.926,1.487 2.051,2.751 3.322,3.748 2.326,-2.082 5.159,-4.549 8.964,-6.229 1.615,-0.717 2.202,0.418 1.04,0.854 -2.335,0.873 -4.242,1.872 -9.367,5.857 1.293,0.891 2.719,1.506 4.216,1.813 2.176,-2.072 5.05,-4.669 8.434,-6.309 1.592,-0.771 2.238,0.402 1.072,0.816 -1.991,0.707 -5.823,3.451 -8.578,5.635 3.698,0.427 7.769,-1.037 11.439,-5.094 8.923,4.502 4.344,11.831 -5.393,9.207 -4.654,-1.254 -7.686,1.663 -7.399,2.698 0.104,0.158 0.013,0.052 0.602,-0.173 1.39,-0.528 2.514,-1.03 5.382,-0.406 3.704,1.072 4.579,1.505 8.246,0.709 -2.894,2.969 -1.979,6.74 1.611,7.908 0.745,0.24 0.979,-0.1 -0.124,-1.314 -1.555,-1.715 -0.823,-3.791 1.535,-5.51 0.718,3.914 5.688,4.4 11.02,2.164 5.51,-2.314 6.995,-4.165 15.163,-1.563 0.898,0.703 1.35,0.129 0.7,-0.476 -3.802,-3.332 -8.976,-3.489 -15.479,-1.403 -11.106,3.559 -10.191,-4.709 3.229,-9.479 2.052,3.708 6.576,5.859 11.127,5.577 -2.537,-2.324 -5.685,-4.813 -7.482,-5.546 -0.839,-0.34 -0.283,-1.537 1.127,-0.741 3.074,1.735 5.455,4.044 7.39,6.179 1.655,-0.238 3.283,-0.824 4.773,-1.771 -2.626,-2.118 -6.195,-4.793 -8.058,-5.449 -0.805,-0.284 -0.259,-1.488 1.086,-0.799 2.955,1.511 5.664,3.866 7.675,5.778 1.261,-0.932 2.396,-2.16 3.334,-3.703 -2.614,-1.506 -5.813,-3.004 -7.621,-3.44 -1.206,-0.293 -0.682,-1.526 0.979,-0.926 2.844,1.026 5.185,2.333 7.058,3.618 0.698,-1.315 1.257,-2.836 1.642,-4.579 -2.392,-0.728 -4.834,-1.248 -6.404,-1.292 -1.175,-0.032 -0.936,-1.282 0.729,-1.053 2.383,0.328 4.215,0.842 5.864,1.472 0.205,-1.138 0.337,-2.361 0.388,-3.679 -1.75,0.012 -3.354,0.143 -4.517,0.343 -0.878,0.149 -1.138,-0.906 0.299,-1.036 m -27.24,-28.142 c -1.945,-1.455 -5.613,-3.46 -7.753,-4.282 -0.355,0.525 -0.721,1.005 -1.092,1.408 -0.586,0.631 -1.111,1.267 -1.595,1.905 3.358,1.104 8.282,3.149 11.424,4.933 -0.274,-1.376 -0.604,-2.699 -0.984,-3.964 m -0.564,21.996 c 0.998,0.062 1.309,-0.524 1.566,-1.847 -3.096,-1.736 -9.42,-4.263 -13.628,-5.324 2.157,4.019 6.521,6.834 12.062,7.171 m -3.989,-32.89 c -0.271,0.759 -0.58,1.536 -0.912,2.304 0.761,0.396 1.831,0.908 2.698,1.418 -0.59,-1.29 -1.196,-2.531 -1.786,-3.722 m -9.525,19.286 c 3.251,0.606 11.646,3.663 15.789,5.769 0.063,-1.19 0.063,-2.332 0.029,-3.449 -2.781,-1.715 -10.351,-5.213 -14.947,-6.667 -0.531,1.48 -0.813,2.938 -0.871,4.347 m 1.008,5.51 c 3.836,0.84 10.585,3.228 14.275,5.062 10e-4,-0.007 10e-4,-0.012 0.003,-0.019 0.188,-1.202 0.311,-2.354 0.401,-3.486 -2.885,-1.598 -11.271,-5.21 -15.693,-6.2 0.042,1.644 0.392,3.209 1.014,4.643 M 381.77,16.926 c -0.882,-0.714 -2.661,-1.775 -3.689,-2.461 -0.491,1.084 -1.028,2.127 -1.603,3.057 1.479,0.618 4.833,2.056 6.814,3.336 -0.466,-1.371 -0.984,-2.677 -1.522,-3.932 m 3.279,10.875 c -2.394,-1.487 -8.514,-4.333 -12.118,-5.706 -0.867,1.235 -1.55,2.471 -2.057,3.701 3.392,0.938 10.74,3.843 14.622,6.01 -0.084,-1.389 -0.238,-2.723 -0.447,-4.005 m -16.606,11.485 c -1.319,-0.474 -2.646,-0.721 -3.771,-0.852 0.037,3.303 0.749,10.965 1.429,13.683 0.775,0.422 1.544,0.778 2.303,1.09 -0.563,-7.195 -0.287,-10.611 0.039,-13.921 m 4.139,2.643 c -0.979,-1.066 -2.165,-1.819 -3.39,-2.347 -0.26,3.622 -0.095,11.605 0.531,13.878 0.016,0.055 0.041,0.162 0.07,0.273 0.724,0.253 1.43,0.469 2.118,0.666 -0.264,-4.407 0.196,-9.17 0.671,-12.47 m -15.421,-4.017 c 0.24,1.407 0.909,5.88 1.727,8.098 0.757,0.925 1.518,1.75 2.277,2.479 -0.591,-2.975 -1.087,-8.637 -1.201,-10.334 -0.886,-0.056 -1.865,-0.135 -2.803,-0.243 m 16.089,4.844 c -0.335,3.436 -0.536,9.412 -0.137,12.01 0.528,0.112 1.082,0.121 1.188,-0.313 1.41,-5.655 0.646,-9.314 -1.051,-11.697 m -9.303,-4.394 c -0.568,-0.047 -1.066,-0.068 -1.447,-0.082 -0.438,-0.015 -1.081,-0.041 -1.826,-0.082 0.298,2.417 0.899,8.716 1.948,11.579 0.72,0.587 1.437,1.104 2.148,1.557 -0.729,-4.549 -0.887,-9.831 -0.823,-12.972 M 353.48,37.119 c 1.339,2.878 2.728,5.254 4.14,7.229 -0.419,-1.491 -0.854,-5.228 -1.082,-6.515 -1.265,-0.169 -2.399,-0.398 -3.058,-0.714" />
<path
   id="Hochschule_Fulda"
   d="M 37.268,46.122 H 32.461 L 34.563,35.121 H 24.014 L 21.946,46.122 H 17.14 l 4.806,-25.344 h 4.808 l -1.952,10.137 h 10.549 l 1.917,-10.137 h 4.805 z m 16.97,-14.944 c -3.491,0 -5.594,4.168 -5.594,7.885 0,2.028 0.826,3.304 3.004,3.304 3.341,0 5.669,-3.717 5.669,-7.886 10e-4,-2.139 -0.902,-3.303 -3.079,-3.303 M 51.01,46.5 c -5.22,0 -7.285,-2.479 -7.285,-6.685 0,-7.811 5.218,-12.729 11.226,-12.729 5.333,0 7.321,2.854 7.321,6.796 0,7.697 -5.405,12.618 -11.262,12.618 M 79.657,31.705 c -0.824,-0.376 -1.765,-0.563 -2.89,-0.563 -3.905,0 -5.709,4.355 -5.709,7.846 0,1.765 0.752,3.304 3.305,3.304 1.202,0 2.478,-0.262 3.493,-0.713 l -0.414,4.168 c -1.277,0.45 -2.853,0.752 -4.467,0.752 -4.994,0 -6.909,-2.554 -6.909,-6.46 0,-7.135 4.206,-12.955 11,-12.955 1.353,0 2.554,0.188 3.719,0.487 z m 19.151,14.417 h -4.732 l 2.253,-11.715 c 0.451,-2.288 0.075,-3.228 -1.127,-3.228 -2.515,0 -5.893,5.857 -6.721,10.212 l -0.901,4.731 h -4.693 l 5.22,-27.409 H 92.8 l -1.465,7.884 c -0.337,1.653 -0.901,3.53 -2.026,6.647 l 0.073,0.038 c 1.689,-3.343 4.281,-6.234 7.848,-6.234 3.604,0 4.695,2.553 4.018,6.196 z m 18.698,-15.094 c -0.826,-0.264 -1.689,-0.375 -2.516,-0.375 -1.952,0 -2.893,0.789 -2.893,1.989 0,2.291 4.846,3.378 4.846,7.511 0,3.115 -2.705,6.347 -8.523,6.347 -1.239,0 -2.331,-0.115 -3.267,-0.264 l 0.863,-4.056 c 0.864,0.3 1.915,0.525 2.854,0.525 1.915,0 3.117,-0.75 3.117,-2.103 0,-2.515 -4.806,-3.079 -4.806,-7.471 0,-3.418 2.666,-6.046 8.034,-6.046 1.202,0 2.215,0.077 3.154,0.264 z m 18.098,0.677 c -0.826,-0.376 -1.765,-0.563 -2.892,-0.563 -3.905,0 -5.707,4.355 -5.707,7.846 0,1.765 0.751,3.304 3.303,3.304 1.204,0 2.479,-0.262 3.493,-0.713 l -0.414,4.168 c -1.275,0.45 -2.852,0.752 -4.468,0.752 -4.994,0 -6.907,-2.554 -6.907,-6.46 0,-7.135 4.204,-12.955 11,-12.955 1.353,0 2.553,0.188 3.717,0.487 z m 19.149,14.417 h -4.731 l 2.252,-11.715 c 0.453,-2.288 0.074,-3.228 -1.125,-3.228 -2.517,0 -5.895,5.857 -6.721,10.212 l -0.901,4.731 h -4.693 l 5.218,-27.409 h 4.695 l -1.465,7.884 c -0.337,1.653 -0.901,3.53 -2.028,6.647 l 0.075,0.038 c 1.689,-3.343 4.28,-6.234 7.848,-6.234 3.605,0 4.692,2.553 4.018,6.196 z m 24.518,-8.898 c -0.486,2.553 -1.239,6.646 -1.614,8.898 h -4.58 c 0.188,-1.125 0.638,-2.854 1.651,-5.782 l -0.075,-0.037 c -1.689,3.341 -4.279,6.232 -7.847,6.232 -3.605,0 -4.694,-2.553 -4.017,-6.196 l 2.477,-12.878 h 4.695 l -2.255,11.715 c -0.413,2.291 -0.076,3.228 1.128,3.228 2.515,0 5.894,-5.856 6.721,-10.212 l 0.9,-4.73 h 4.693 z m 9.95,8.898 h -4.691 l 5.217,-27.41 h 4.694 z m 17.272,-15.506 c -2.441,0 -3.98,2.252 -4.656,4.691 4.317,-0.148 6.572,-1.05 6.572,-3.04 0,-1.052 -0.713,-1.651 -1.916,-1.651 m -5.182,7.884 c -0.035,0.414 -0.113,1.052 -0.113,1.465 0,2.141 0.826,2.778 3.418,2.778 1.803,0 3.717,-0.414 5.444,-1.126 v 3.679 c -2.063,0.79 -4.506,1.204 -6.984,1.204 -4.731,0 -6.607,-2.18 -6.607,-6.31 0,-7.812 4.729,-13.105 10.55,-13.105 4.619,0 6.046,2.291 6.046,4.544 0,4.468 -4.431,6.646 -11.754,6.871 m 42.392,-13.593 h -8.486 l -1.239,6.534 h 8.035 l -0.789,4.017 h -7.998 L 231.2,46.122 h -4.806 L 231.2,20.778 h 13.292 z m 18.884,12.317 c -0.488,2.553 -1.236,6.646 -1.613,8.898 h -4.582 c 0.188,-1.125 0.641,-2.854 1.652,-5.782 l -0.075,-0.037 c -1.688,3.341 -4.278,6.232 -7.848,6.232 -3.604,0 -4.693,-2.553 -4.019,-6.196 l 2.479,-12.878 h 4.693 l -2.25,11.715 c -0.416,2.291 -0.078,3.228 1.125,3.228 2.517,0 5.895,-5.856 6.72,-10.212 l 0.901,-4.73 h 4.693 z m 9.951,8.898 h -4.694 l 5.22,-27.41 h 4.693 z m 18.32,-15.243 c -4.313,0 -6.307,5.03 -6.307,8.936 0,1.839 0.487,2.59 1.428,2.59 2.666,0 6.01,-6.121 6.758,-10.062 l 0.228,-1.2 c -0.603,-0.153 -1.278,-0.264 -2.107,-0.264 m 5.222,8.523 c -0.375,2.065 -0.901,4.994 -1.202,6.719 h -4.618 c 0.265,-1.464 0.864,-3.341 1.729,-5.932 h -0.076 c -1.502,2.741 -4.094,6.345 -7.811,6.345 -2.854,0 -4.395,-1.84 -4.395,-5.82 0,-7.058 3.794,-13.592 11.979,-13.592 0.639,0 1.2,0.039 1.991,0.15 l 1.613,-8.561 h 4.732 z m 17.007,-8.523 c -4.316,0 -6.307,5.03 -6.307,8.936 0,1.839 0.488,2.59 1.426,2.59 2.665,0 6.009,-6.121 6.759,-10.062 l 0.227,-1.2 c -0.601,-0.153 -1.278,-0.264 -2.105,-0.264 m 4.021,15.243 h -4.658 c 0.339,-1.464 0.901,-3.341 1.766,-5.932 h -0.074 c -1.502,2.741 -4.094,6.345 -7.812,6.345 -2.854,0 -4.394,-1.84 -4.394,-5.82 0,-7.058 3.792,-13.592 11.978,-13.592 2.254,0 4.506,0.15 6.61,0.564 -1.651,8.672 -2.63,13.517 -3.416,18.435"
   style="fill:#1f1d21" />
<path
   id="University_of_Applied_Sciences"
   d="m 85.1,69.207 c -0.658,3.514 -2.775,5.135 -6.15,5.135 -3.934,0 -4.633,-2.18 -4.114,-4.894 l 1.658,-8.788 h 1.797 l -1.699,8.865 c -0.397,2.157 0.223,3.295 2.618,3.295 2.298,0 3.616,-0.997 4.156,-3.814 l 1.596,-8.346 h 1.76 z m 10.506,4.932 h -1.758 l 1.218,-6.351 c 0.301,-1.56 0.021,-2.236 -0.878,-2.236 -1.838,0 -3.875,3.896 -4.333,6.352 l -0.42,2.235 h -1.758 l 1,-5.193 c 0.258,-1.417 0.62,-3.274 0.878,-4.731 h 1.738 c -0.121,0.66 -0.401,1.796 -1.099,3.914 h 0.041 c 0.937,-2.098 2.515,-4.113 4.594,-4.113 1.836,0 2.456,1.297 2.077,3.374 z m 6.75,-11.563 c -0.66,0 -1.14,-0.519 -1.099,-1.138 0.02,-0.681 0.6,-1.199 1.259,-1.199 0.638,0 1.137,0.499 1.099,1.119 -0.04,0.677 -0.619,1.218 -1.259,1.218 m -1.476,11.563 h -1.76 l 1.898,-9.925 h 1.758 z m 7.527,0 h -1.836 l -1.758,-9.925 h 1.897 l 0.919,5.83 c 0.1,0.621 0.18,1.319 0.219,1.92 h 0.021 l 4.192,-8.17 1.66,0.58 z m 10.865,-8.749 c -1.576,0 -2.636,1.38 -3.095,3.056 3.076,-0.118 4.433,-0.737 4.433,-1.938 0,-0.717 -0.538,-1.118 -1.338,-1.118 m -3.314,4.377 c -0.061,0.299 -0.102,0.799 -0.102,1.156 0,1.539 0.54,1.937 2.137,1.937 0.939,0 1.939,-0.219 2.797,-0.579 v 1.44 c -0.958,0.378 -2.116,0.599 -3.415,0.599 -2.278,0 -3.336,-0.98 -3.336,-3.216 0,-3.854 2.138,-7.071 5.433,-7.071 2.116,0 2.916,1.079 2.916,2.258 -0.001,2.135 -2.177,3.315 -6.43,3.476 m 14.3,-3.996 c -1.84,-0.52 -3.796,3.375 -4.316,6.132 l -0.418,2.235 h -1.758 l 1.877,-9.924 h 1.718 c -0.159,0.858 -0.438,1.916 -1.018,3.654 l 0.04,0.019 c 1.119,-2.415 2.316,-4.175 4.234,-3.854 z m 6.649,-0.141 c -0.479,-0.158 -0.998,-0.24 -1.498,-0.24 -1.297,0 -1.977,0.62 -1.977,1.458 0,1.578 3.015,1.999 3.015,4.235 0,1.658 -1.457,3.235 -4.273,3.235 -0.659,0 -1.198,-0.04 -1.697,-0.142 l 0.319,-1.598 c 0.52,0.162 1.06,0.26 1.619,0.26 1.297,0 2.176,-0.519 2.176,-1.557 0,-1.578 -2.996,-1.836 -2.996,-4.234 0,-1.696 1.357,-3.017 3.935,-3.017 0.698,0 1.197,0.062 1.697,0.142 z m 5.075,-3.054 c -0.661,0 -1.14,-0.519 -1.1,-1.138 0.02,-0.681 0.6,-1.199 1.258,-1.199 0.64,0 1.138,0.499 1.099,1.119 -0.041,0.677 -0.62,1.218 -1.257,1.218 m -1.481,11.563 h -1.756 l 1.897,-9.925 h 1.758 z m 9.989,-8.526 h -2.698 l -0.979,5.191 c -0.279,1.537 -0.08,1.958 0.9,1.958 0.559,0 0.978,-0.062 1.378,-0.161 l -0.121,1.498 c -0.579,0.12 -1.277,0.199 -1.858,0.199 -2.037,0 -2.556,-0.959 -2.135,-3.215 l 1.058,-5.472 h -2.018 l 0.279,-1.397 h 1.997 l 0.62,-3.219 1.857,-0.418 -0.7,3.637 h 2.698 z m 2.834,11.803 c -1.177,1.198 -2.415,1.797 -3.593,1.797 -0.5,0 -1,-0.041 -1.398,-0.141 l 0.299,-1.617 c 0.399,0.139 0.817,0.199 1.258,0.199 0.698,0 1.517,-0.42 2.195,-1.138 0.78,-0.84 1.121,-1.739 1.121,-3.179 0,-2.633 -0.561,-5.909 -1.459,-9.125 h 1.997 c 0.658,2.574 1.118,5.672 1.118,7.789 0,0.359 -0.06,0.838 -0.141,1.238 h 0.022 c 1.576,-2.775 2.937,-5.613 4.493,-9.427 l 1.678,0.499 c -2.618,6.134 -5.134,10.606 -7.59,13.105 M 171.42,65.552 c -2.178,0 -3.635,2.436 -3.635,4.932 0,1.48 0.599,2.296 2.098,2.296 1.936,0 3.633,-2.075 3.633,-4.971 0,-1.459 -0.659,-2.257 -2.096,-2.257 m -1.838,8.767 c -2.497,0 -3.635,-1.258 -3.635,-3.534 0,-3.955 2.516,-6.753 5.753,-6.753 2.614,0 3.695,1.479 3.695,3.575 0,4.096 -2.817,6.712 -5.813,6.712 m 15.519,-13.222 c -0.441,-0.119 -0.979,-0.199 -1.398,-0.199 -1.439,0 -2.237,0.759 -2.557,2.637 l -0.122,0.68 h 2.698 l -0.299,1.398 h -2.677 l -1.717,9.026 c -0.621,3.256 -2.138,4.573 -4.556,4.573 -0.578,0 -1.178,-0.06 -1.716,-0.178 l 0.438,-1.521 c 0.46,0.141 0.997,0.198 1.398,0.198 1.417,0 2.217,-0.717 2.656,-3.034 l 1.738,-9.066 h -2.018 l 0.299,-1.397 h 1.979 l 0.142,-0.7 c 0.479,-2.716 1.915,-4.075 4.492,-4.075 0.559,0 1.099,0.061 1.658,0.18 z m 10.126,3.615 c -0.121,-0.639 -0.201,-1.336 -0.24,-1.998 h -0.04 c -0.26,0.621 -0.6,1.318 -0.979,2.019 l -2.595,4.792 h 4.652 z m 1.496,9.427 -0.479,-3.154 h -5.632 l -1.698,3.154 h -1.917 l 7.39,-13.479 h 1.996 l 2.277,13.479 z m 10.585,-8.587 c -1.877,0 -3.896,3.974 -4.354,6.311 l -0.16,0.76 c 0.418,0.141 1.018,0.237 1.437,0.237 2.918,0 4.096,-3.034 4.096,-5.491 0,-1.299 -0.399,-1.817 -1.019,-1.817 m -3.414,8.727 c -0.499,0 -0.939,-0.041 -1.399,-0.119 l -0.918,4.912 h -1.756 l 2.814,-14.857 h 1.757 c -0.178,0.858 -0.438,1.836 -1.118,3.974 l 0.041,0.019 c 1.017,-2.336 2.575,-4.191 4.613,-4.191 1.438,0 2.218,0.917 2.218,3.014 0,3.653 -1.899,7.248 -6.252,7.248 m 14.359,-8.727 c -1.877,0 -3.894,3.974 -4.355,6.311 l -0.158,0.76 c 0.418,0.141 1.018,0.237 1.438,0.237 2.917,0 4.094,-3.034 4.094,-5.491 0,-1.299 -0.399,-1.817 -1.019,-1.817 m -3.414,8.727 c -0.499,0 -0.941,-0.041 -1.399,-0.119 l -0.918,4.912 h -1.758 l 2.816,-14.857 h 1.757 c -0.178,0.858 -0.438,1.836 -1.118,3.974 l 0.041,0.019 c 1.017,-2.336 2.577,-4.191 4.613,-4.191 1.438,0 2.216,0.917 2.216,3.014 -0.001,3.653 -1.899,7.248 -6.25,7.248 m 9.566,-0.14 h -1.758 l 2.776,-14.579 h 1.757 z m 6.751,-11.563 c -0.66,0 -1.138,-0.519 -1.101,-1.138 0.021,-0.681 0.602,-1.199 1.26,-1.199 0.639,0 1.138,0.499 1.1,1.119 -0.041,0.677 -0.62,1.218 -1.259,1.218 m -1.477,11.563 h -1.76 l 1.898,-9.925 h 1.758 z m 8.747,-8.749 c -1.579,0 -2.639,1.38 -3.096,3.056 3.075,-0.118 4.435,-0.737 4.435,-1.938 0,-0.717 -0.541,-1.118 -1.339,-1.118 m -3.316,4.377 c -0.06,0.299 -0.101,0.799 -0.101,1.156 0,1.539 0.54,1.937 2.138,1.937 0.938,0 1.937,-0.219 2.797,-0.579 v 1.44 c -0.961,0.378 -2.118,0.599 -3.416,0.599 -2.277,0 -3.336,-0.98 -3.336,-3.216 0,-3.854 2.139,-7.071 5.434,-7.071 2.116,0 2.916,1.079 2.916,2.258 0,2.135 -2.18,3.315 -6.432,3.476 m 13.68,-4.295 c -2.955,0 -4.112,3.055 -4.112,5.513 0,1.296 0.398,1.816 1.019,1.816 1.877,0 3.914,-3.974 4.373,-6.351 l 0.142,-0.801 c -0.402,-0.097 -0.861,-0.177 -1.422,-0.177 m 2.238,5.093 c -0.26,1.376 -0.521,2.754 -0.66,3.573 h -1.756 c 0.158,-0.856 0.537,-2.174 1.137,-4.035 l -0.038,-0.02 c -0.72,1.539 -2.219,4.256 -4.635,4.256 -1.438,0 -2.22,-0.92 -2.22,-3.019 0,-3.653 1.9,-7.27 6.234,-7.27 0.499,0 0.896,0.04 1.396,0.12 l 0.857,-4.612 h 1.779 z m 15.22,-8.269 c -0.662,-0.239 -1.379,-0.32 -1.878,-0.32 -1.999,0 -2.896,1.138 -2.896,2.217 0,2.438 4.112,2.518 4.112,5.712 0,2.498 -2.194,4.437 -5.33,4.437 -0.721,0 -1.559,-0.081 -2.217,-0.28 l 0.34,-1.759 c 0.558,0.24 1.354,0.418 2.036,0.418 2.076,0 3.256,-1.018 3.256,-2.516 0,-2.334 -4.095,-2.356 -4.095,-5.593 0,-2.218 1.737,-4.153 4.972,-4.153 0.68,0 1.279,0.039 2.038,0.201 z m 8.788,3.616 c -0.542,-0.24 -1.119,-0.381 -1.819,-0.381 -2.517,0 -3.694,2.838 -3.694,5.092 0,1.041 0.338,2.097 2.076,2.097 0.779,0 1.618,-0.179 2.236,-0.478 l -0.119,1.576 c -0.697,0.262 -1.617,0.48 -2.615,0.48 -2.578,0 -3.455,-1.398 -3.455,-3.275 0,-3.793 2.137,-6.971 5.69,-6.971 0.82,0 1.479,0.121 2.099,0.301 z m 4.311,-3.336 c -0.658,0 -1.138,-0.519 -1.097,-1.138 0.019,-0.681 0.597,-1.199 1.257,-1.199 0.641,0 1.139,0.499 1.1,1.119 -0.042,0.677 -0.62,1.218 -1.26,1.218 m -1.478,11.563 h -1.757 l 1.896,-9.925 h 1.756 z m 8.749,-8.749 c -1.578,0 -2.637,1.38 -3.098,3.056 3.076,-0.118 4.436,-0.737 4.436,-1.938 0,-0.717 -0.54,-1.118 -1.338,-1.118 m -3.317,4.377 c -0.061,0.299 -0.1,0.799 -0.1,1.156 0,1.539 0.54,1.937 2.137,1.937 0.938,0 1.938,-0.219 2.797,-0.579 v 1.44 c -0.959,0.378 -2.116,0.599 -3.416,0.599 -2.276,0 -3.335,-0.98 -3.335,-3.216 0,-3.854 2.137,-7.071 5.434,-7.071 2.117,0 2.916,1.079 2.916,2.258 -10e-4,2.135 -2.178,3.315 -6.433,3.476 m 15.741,4.372 h -1.759 l 1.219,-6.351 c 0.298,-1.56 0.019,-2.236 -0.88,-2.236 -1.838,0 -3.873,3.896 -4.335,6.352 l -0.418,2.235 h -1.757 l 0.996,-5.193 c 0.262,-1.417 0.619,-3.274 0.881,-4.731 h 1.736 c -0.119,0.66 -0.398,1.796 -1.1,3.914 h 0.041 c 0.938,-2.098 2.518,-4.113 4.596,-4.113 1.836,0 2.454,1.297 2.075,3.374 z m 10.862,-8.227 c -0.537,-0.24 -1.118,-0.381 -1.816,-0.381 -2.517,0 -3.695,2.838 -3.695,5.092 0,1.041 0.341,2.097 2.076,2.097 0.78,0 1.619,-0.179 2.238,-0.478 l -0.12,1.576 c -0.699,0.262 -1.619,0.48 -2.616,0.48 -2.576,0 -3.454,-1.398 -3.454,-3.275 0,-3.793 2.137,-6.971 5.69,-6.971 0.82,0 1.479,0.121 2.099,0.301 z m 6.331,-0.522 c -1.578,0 -2.638,1.38 -3.096,3.056 3.074,-0.118 4.434,-0.737 4.434,-1.938 0,-0.717 -0.537,-1.118 -1.338,-1.118 m -3.315,4.377 c -0.06,0.299 -0.1,0.799 -0.1,1.156 0,1.539 0.538,1.937 2.137,1.937 0.938,0 1.938,-0.219 2.796,-0.579 v 1.44 c -0.958,0.378 -2.115,0.599 -3.416,0.599 -2.276,0 -3.334,-0.98 -3.334,-3.216 0,-3.854 2.137,-7.071 5.433,-7.071 2.115,0 2.916,1.079 2.916,2.258 0,2.135 -2.177,3.315 -6.432,3.476 M 326.7,65.63 c -0.479,-0.158 -0.997,-0.24 -1.496,-0.24 -1.3,0 -1.979,0.62 -1.979,1.458 0,1.578 3.019,1.999 3.019,4.235 0,1.658 -1.459,3.235 -4.277,3.235 -0.657,0 -1.196,-0.04 -1.695,-0.142 l 0.321,-1.598 c 0.519,0.162 1.057,0.26 1.617,0.26 1.297,0 2.177,-0.519 2.177,-1.557 0,-1.578 -2.996,-1.836 -2.996,-4.234 0,-1.696 1.355,-3.017 3.935,-3.017 0.699,0 1.199,0.062 1.698,0.142 z"
   style="fill:#1f1d21" />
<rect
   id="Distanzrahmen"
   fill="none"
   width="421.87573"
   height="98.496002"
   x="0"
   y="0"
   style="stroke-width:0.999996" />
</svg>
