<?xml version="1.0" encoding="UTF-8" standalone="no"?>
<!-- Created with Inkscape (http://www.inkscape.org/) -->

<svg
   xmlns:dc="http://purl.org/dc/elements/1.1/"
   xmlns:cc="http://creativecommons.org/ns#"
   xmlns:rdf="http://www.w3.org/1999/02/22-rdf-syntax-ns#"
   xmlns:svg="http://www.w3.org/2000/svg"
   xmlns="http://www.w3.org/2000/svg"
   xmlns:xlink="http://www.w3.org/1999/xlink"
   xmlns:sodipodi="http://sodipodi.sourceforge.net/DTD/sodipodi-0.dtd"
   xmlns:inkscape="http://www.inkscape.org/namespaces/inkscape"
   id="Andysvg"
   inkscape:export-ydpi="72"
   viewBox="0 0 160 160"
   inkscape:export-xdpi="72"
   version="1.0"
   inkscape:output_extension="org.inkscape.output.svg.inkscape"
   sodipodi:docname="computer.svg"
   inkscape:export-filename="/home/nathan/Desktop/Andy Fitzsimon/gnome-fs-client.png"
   inkscape:version="0.92.3 (2405546, 2018-03-11)"
   sodipodi:version="0.32"
   y="0"
   x="0">
  <defs
     id="defs3">
    <linearGradient
       id="linearGradient892">
      <stop
         id="stop893"
         style="stop-color:#ffffff;stop-opacity:0"
         offset="0" />
      <stop
         id="stop894"
         style="stop-color:#fff"
         offset="1" />
    </linearGradient>
    <linearGradient
       id="linearGradient888">
      <stop
         id="stop889"
         style="stop-color:#565248"
         offset="0" />
      <stop
         id="stop1861"
         style="stop-color:#807d74"
         offset=".5" />
      <stop
         id="stop890"
         style="stop-color:#fff"
         offset="1" />
    </linearGradient>
    <linearGradient
       id="linearGradient891"
       y2="1.0899"
       xlink:href="#linearGradient888"
       y1="-.85185"
       x2=".024648"
       x1="1.3486" />
    <linearGradient
       id="linearGradient901"
       y2=".25"
       y1="1.1016"
       x2=".58031"
       x1=".54922">
      <stop
         id="stop1134"
         style="stop-color:#9db8d2"
         offset="0" />
      <stop
         id="stop1136"
         style="stop-color:#4b6983"
         offset=".76209" />
      <stop
         id="stop1135"
         style="stop-color:#314e6c"
         offset="1" />
    </linearGradient>
    <linearGradient
       id="linearGradient905"
       y2="-.19531"
       xlink:href="#linearGradient888"
       y1="2.7891"
       x2="1.0909"
       x1="-1.539" />
    <linearGradient
       id="linearGradient1138"
       y2=".52326"
       y1="1.9767"
       x2=".15294"
       x1=".67451">
      <stop
         id="stop1807"
         style="stop-color:#000000;stop-opacity:.35052"
         offset="0" />
      <stop
         id="stop3276"
         style="stop-color:#000000;stop-opacity:.13402"
         offset="0.65" />
      <stop
         id="stop1808"
         style="stop-color:#000000;stop-opacity:0"
         offset="1" />
    </linearGradient>
    <linearGradient
       id="linearGradient1140"
       y2="1.4429"
       xlink:href="#linearGradient888"
       y1="-1.0735"
       x2=".67843"
       x1=".73913" />
    <linearGradient
       id="linearGradient1144"
       y2="1.3833"
       xlink:href="#linearGradient892"
       y1=".26635"
       x2=".53333"
       x1=".52941" />
    <linearGradient
       id="linearGradient1146"
       y2="1.1875"
       xlink:href="#linearGradient892"
       y1=".55469"
       x2="-.076577"
       x1=".51351" />
    <linearGradient
       id="linearGradient1148"
       y2="-.57031"
       xlink:href="#linearGradient892"
       y1=".32812"
       x2="1.326"
       x1=".58150" />
    <linearGradient
       id="linearGradient1150"
       y2="1.4766"
       xlink:href="#linearGradient892"
       y1=".57812"
       x2="-.57522"
       x1=".25221" />
    <linearGradient
       id="linearGradient1156"
       y2="1.875"
       xlink:href="#linearGradient888"
       y1="-0.4"
       x2=".48261"
       x1=".48261" />
    <linearGradient
       id="linearGradient1157"
       y2="-.48980"
       xlink:href="#linearGradient888"
       y1="3.3265"
       x2="-1.2077"
       x1="1.5528" />
    <linearGradient
       id="linearGradient1166"
       y2=".86503"
       y1="-.52941"
       x2=".50481"
       x1=".85859">
      <stop
         id="stop1318"
         style="stop-color:#000000;stop-opacity:.52893"
         offset="0" />
      <stop
         id="stop1320"
         style="stop-color:#000000;stop-opacity:.17355"
         offset=".5" />
      <stop
         id="stop1319"
         style="stop-color:#000000;stop-opacity:0"
         offset="1" />
    </linearGradient>
    <linearGradient
       id="linearGradient1167"
       y2=".046875"
       xlink:href="#linearGradient888"
       y1="3.0703"
       x2="-.083333"
       x1="1.6111" />
    <linearGradient
       id="linearGradient1169"
       y2="-.26733"
       y1="2.9219"
       x2="-.13028"
       x1="1.478">
      <stop
         id="stop895"
         offset="0" />
      <stop
         id="stop896"
         style="stop-color:#fff"
         offset="1" />
    </linearGradient>
    <linearGradient
       id="linearGradient1171"
       y2=".36719"
       y1=".57812"
       x2=".56356"
       x1=".83051">
      <stop
         id="stop903"
         style="stop-color:#000000;stop-opacity:0"
         offset="0" />
      <stop
         id="stop904"
         style="stop-color:#000000;stop-opacity:.22"
         offset="1" />
    </linearGradient>
    <linearGradient
       id="linearGradient1404"
       y2="1.1"
       xlink:href="#linearGradient892"
       y1=".28889"
       x2=".54577"
       x1=".53169" />
  </defs>
  <sodipodi:namedview
     id="base"
     bordercolor="#666666"
     inkscape:pageshadow="2"
     inkscape:window-width="1877"
     pagecolor="#ffffff"
     inkscape:zoom="2.8284272"
     inkscape:window-x="43"
     showgrid="false"
     borderopacity="1.0"
     inkscape:current-layer="Andysvg"
     inkscape:cx="46.39354"
     inkscape:cy="124.95155"
     inkscape:window-y="27"
     inkscape:window-height="1025"
     showborder="true"
     inkscape:pageopacity="0.0"
     inkscape:window-maximized="1" />
  <path
     id="rect1009"
     style="fill-rule:evenodd;stroke-width:1.4473pt;fill:#ffffff"
     transform="translate(85.737 -13.258)"
     d="m-59.372 36.528c-3.359 0-6.064 2.705-6.064 6.064v54.924c0 3.364 2.705 6.064 6.064 6.064h2.057v4.6h-5.681c-1.55 0-3.206 1.14-3.938 2.51l-10.699 19.97c-1.449 2.7 2.299 7.49 5.367 7.49h98.069c2.607 0 6.548-3.39 5.367-5.71l-1.255-2.51c3.505-1.12 7.368-5.17 13.418-2.16 9.136 4.42 14.155 6.13 20.84 0.8 7.504-3.3 3.253 2.2-2.683 9.3-0.891-0.5-1.68-1.09-2.718-1.39 0 0-9.306-1.97-15.369 1.78-6.064 3.74-15.217 10.69-16.554 12.47-1.516 1.96-1.515 6.04 0.522 7.5l6.239 4.46c3.874 2.76 11.182 4.16 14.811 1.08l16.589-14.12c2.018-1.71 3.026-6.21 1.22-7.84-0.612-0.94-1.593-1.96-2.788-2.89 2.401-2.16 5.236-5.43 7.039-9.93 4.484-10.89-9.793 2.25-15.891 0.1-6.099-2.15-15.518-8.42-22.723-3.17-1.548 1.13-2.537 1.52-3.206 1.57l-0.802-1.54c0.613-1.73 2.836-4.34 5.751-5.22 5.829-2.02 8.874-5.43 8.921-8.65 0.047-2.97-5.489-5.95-11.047-8.64-5.805-2.69-13.879-4.246-15.857-3.868-0.348-0.114-0.56 0.021-0.872 0 0.234-0.645 0.384-1.328 0.384-2.056v-54.924c0-3.359-2.705-6.064-6.0642-6.064h-68.447zm77.752 65.102c7.374 0.28 21.161 6.28 21.398 10.07 0.183 3.1-9.39 6.5-13.87 10.39l-5.786-11.4c-0.851-1.68-2.79-2.51-4.67-2.51h-8.538v-4.6h2.1608c1.5452 0 2.9392-0.62 4.0082-1.57 0.602 0.14 1.362 0.23 2.613-0.14 0.734-0.21 1.63-0.28 2.684-0.24z" />
  <g
     id="g4293"
     style="stroke-width:.50497;stroke-opacity:.76101;fill:url(#linearGradient1138)"
     transform="matrix(1.1152 0 0 .96416 387.43 12.273)">
    <path
       id="path2720"
       d="m-270.86 33.815c-18.5 0.111-37.07-0.222-55.52 0.167-5.05 1.714-4.64 7.918-4.31 12.171-0.07 14.074 0.15 28.145 0.48 42.215 2 2.672 6.99 2.25 7.53 6.171 1.9 1.72 5.63 0.343 8.24 0.794 15.89 0.027 31.78 0.054 47.67 0.081 0.41-4.949 6.64-6.59 10.95-5.874-0.2-0.482-5.88-1.601-3.8-5.048 0.16-15.765 0.42-31.61-0.2-47.324-1.37-4.187-7.52-3.334-11.04-3.353zm34.21 63.445c1.86 2.87-0.44 5.83-3.28 6.9-2.7 1.76-5.66 3.47-8.6 4.61-4.65-0.58-2.89-6.89-6.48-8.873-5.33-3.45-12.2-1.458-18.22-1.958-18.59 0.01-37.19 0.02-55.78 0.029-6.45 5.602-10.16 13.432-12.54 21.352 4.3 4.89 11.65 2.96 17.45 3.08 25.45-0.17 50.98 0.22 76.4-0.15 4.3-1.1 0.25-7.4 4.12-9.21 0.84-0.31-4.23 1.4-3.68-1.41 1.77-4.97 8.12-5.63 11.34-9.26 1.53-2.614-0.35-5.448-2.41-7.11 0.56 0.667 1.12 1.334 1.68 2zm-3.99 14.49c-3 1.38 3.61-1.05 5.08 0.22 5.85 0.77 11.4 5.23 17.44 3.26-7.86 1.09-14.68-6.2-22.52-3.48zm28.63 0.59c-3.97 1.51 3.79-0.16 1.93 3.54-2.43 4.06 3.09-2.01 0.47-3.33-0.55-0.6-1.67-0.07-2.4-0.21zm-1.96 8.49c-6.17 3.5-14.41-1.75-19.89 3.56-4.5 3.61-10.71 5.96-13.18 11.36-0.62 3.85 3.79 6.15 6.59 7.97 4.85 2.83 11.63 2.03 15.25-2.29 4.57-3.47 8.76-7.35 12.71-11.46-0.34-3.02-1.95-6.33-1.48-9.14z" />
    <path
       id="path2723"
       d="m-269.68 32.257c-19.09 0.094-38.2-0.007-57.27 0.092-5.69 1.314-6.95 7.942-6.27 12.8 0.1 14.748 0.15 29.511 0.6 44.246 0.73 3.915 7.76 2.704 7.51 7.046-2.96-0.256-6.44-0.124-7.96 2.805-5.86 5.734-8.92 13.414-11.2 21.044 4.04 5.68 12.01 5.02 18.24 4.43 25.86 0.01 51.75 0.1 77.6 0.06 4.01 0.01 5.12-4.42 4.46-7.57 1.08-4.27 6.93-3.26 10.16-2.22 5.79 1.65 12.55 5.44 18.23 1.39 4.22-2.66 2.52 2.02-0.2 3.05-5.05 2.83-11.31-0.45-16.62 1.78-4.13 2.68-8.35 5.64-12.37 8.54-3.57 2.26-7.14 7.64-3.37 11.22 4.35 5.06 11.77 8.48 18.46 6.12 4.59-2.23 7.89-6.34 12.06-9.2 2.52-2.2 5.13-4.62 6.78-7.39-0.02-3.58-3.85-8.59 0.59-10.93 2.99-1.62 4.44-7.45 0.5-8.69-4.42-1.43-7.2 4.22-11.69 2.81-7.03-0.92-14.12-6.49-21.26-2.97-4.2 2.35-0.77-1.28 1.24-2.15 3.6-1.72 8.73-4.2 7.51-8.952-0.32-4.534-5.27-6.42-9-7.895-4.67-2.648-10.32-2.378-15.11-4.79 0.17-16.548 0.47-33.169-0.21-49.672-0.94-4.868-7.33-5.3-11.41-5.004zm11.02 59.507c7.15 0.475 15.45 1.71 20.08 7.508-0.38 3.788-5.42 4.528-7.95 6.868-2.39 2.34-4.59-0.33-4.5-2.87-1.68-4.934-7.18-7.559-12.29-6.737-3.69 0.193-0.4-4.595 1.92-4.153 0.92-0.202 1.82-0.426 2.74-0.616z" />
    <path
       id="path2737"
       sodipodi:nodetypes="ccccczccccccccccccccccccczccccc"
       d="m-324.04 30.709c-12.31 0.111-11.12 8.944-10.75 14.604 0.24 15.124 0.4 30.286 0.78 45.385 0.8 2.359 3.3 3.288 5.26 4.554-5.71 1.224-8.22 7.178-11.36 11.338-2.22 4.78-7.73 9.34-5.81 14.85 1.92 5.5 13.7 6.24 20.97 5.69 25.88-0.03 51.78 0.02 77.66-0.06 3.99-0.9 6.29-5.03 5.79-8.83 3.2-3.29 8.17-0.21 11.97 0.39 3.81 0.68-3.03 0.65-3.66 1.92-5.05 2.41-9.43 6.1-13.72 9.56-3.54 2.86-5.51 8-2.66 11.97 3.36 3.84 8.16 6.76 13.27 7.72 5.65 1.04 10.73-1.97 14.68-5.56 4.75-3.64 9.53-7.46 12.78-12.43 1.08-3.55-2.63-7.94 0.76-10.71 3.15-2.64 4.01-8.08 0.66-10.83-5.4-3.46-10.95 4.28-16.48 1.02-4.04-1.12-8.01-2.76-12.28-2.84 4.65-2.57 6.55-9.668 2.09-13.297-5.53-5.749-14.37-6.359-21.31-9.409-0.47-6.804-0.14-13.771-0.31-20.645-0.1-9.368-0.03-18.786-0.23-28.123-2.1-5.74-9.4-6.536-14.82-6.246-18.65 0.041-41.13-0.133-53.28-0.021zm68.57 63.774c5.12 1.138 10.78 1.733 14.64 5.567-1.55 2.5-4.45 3.59-6.97 4.93-1.92-5.295-6.6-10.01-12.71-9.842-0.16-1.007 3.78-0.587 5.04-0.655z" />
  </g>
  <rect
     id="rect1155"
     style="fill-rule:evenodd;stroke:url(#linearGradient1157);stroke-width:1.4473pt;fill:url(#linearGradient1156)"
     transform="matrix(1.1152 0 0 1.1152 -8.7922 -1.6897)"
     height="8.3154"
     width="57.568"
     y="78.658"
     x="33.326" />
  <path
     id="path2676"
     sodipodi:nodetypes="czzczczzzzzzzc"
     style="fill-rule:evenodd;stroke-width:.90459;stroke-opacity:.074380;fill:url(#linearGradient1169)"
     d="m98.724 78.928c-3.537-1.168-5.223 3.628 0.043 2.076 5.263-1.551 21.363 4.902 21.603 8.791 0.25 4.111-18.87 8.786-13.63 14.625 4.89 6.28 8.61-4.28 16.81-0.21 8.19 3.97 12.71 5.51 18.7 0.73 6.85-3.01 2.8 2.14-2.67 8.66-5.47 6.53 4.42 1.48 8.33-8.28 4.02-9.762-8.78 2.02-14.25 0.09s-13.92-7.56-20.38-2.85c-6.46 4.7-3.65-3.067 1.58-4.657 5.22-1.811 7.95-4.857 8-7.741 0.04-2.664-4.93-5.35-9.92-7.759-5.2-2.409-12.44-3.814-14.216-3.475z"
     transform="matrix(1.1152 0 0 1.1152 -8.7922 -1.6897)" />
  <path
     id="path1139"
     sodipodi:nodetypes="czzzzzzzz"
     style="fill-rule:evenodd;stroke-width:1.4473pt;fill:url(#linearGradient1140)"
     d="m15.103 106.81c-1.299 2.42 2.046 6.71 4.797 6.71h87.95c2.34 0 5.86-3.03 4.8-5.11l-9.92-19.513c-0.76-1.503-2.47-2.239-4.154-2.239h-70.361c-1.39 0-2.861 1.014-3.518 2.239l-9.594 17.913z"
     transform="matrix(1.1152 0 0 1.1152 -8.7922 -1.6897)" />
  <rect
     id="rect1137"
     style="fill-rule:evenodd;stroke-width:1.6283;fill:url(#linearGradient905)"
     rx="5.437"
     ry="5.437"
     transform="matrix(1.1152 0 0 1.1152 -8.7922 -1.6897)"
     width="72.28"
     y="22.414"
     x="26.015"
     height="60.126" />
  <rect
     id="rect1131"
     style="fill-rule:evenodd;stroke:url(#linearGradient891);stroke-width:1.4649pt;fill:url(#linearGradient901)"
     transform="matrix(1.1152 0 0 1.1152 -8.7922 -1.6897)"
     height="38.044"
     width="58.178"
     y="31.696"
     x="33.386" />
  <path
     id="path1145"
     sodipodi:nodetypes="czzccccc"
     style="fill-rule:evenodd;stroke-width:1pt;fill:url(#linearGradient1146)"
     d="m27.69 52.841l-0.319 21.908c-0.051 3.493 1.939 5.729 5.437 5.757l39.817 0.32 3.838-8.955-44.455-0.32-0.32-18.869-3.998 0.159z"
     transform="matrix(1.1152 0 0 1.1152 -8.7922 -1.6897)" />
  <g
     id="g1791"
     style=""
     transform="matrix(1.1152 0 0 1.1152 -8.7922 -1.6897)">
    <path
       id="path1147"
       sodipodi:nodetypes="czzccc"
       style="fill-rule:evenodd;stroke-width:1pt;fill:url(#linearGradient1148)"
       d="m42.062 33.46l35.279-0.452c5.446-0.07 12.212 5.409 12.212 10.855v16.283l-47.943-0.452 0.452-26.234z" />
    <path
       id="path1149"
       sodipodi:nodetypes="czzccc"
       style="fill-rule:evenodd;stroke-width:1pt;fill:url(#linearGradient1150)"
       d="m78.338 67.629l-31.614 0.096c-4.88 0.014-10.895-4.954-10.847-9.834l0.143-14.589 42.954 0.826-0.636 23.501z" />
  </g>
  <path
     id="path1159"
     sodipodi:nodetypes="cczzzzzzc"
     style="fill-rule:evenodd;stroke-width:.72367;fill:url(#linearGradient1167);stroke-opacity:.34711"
     d="m137.39 112.02s-8.31-1.76-13.75 1.6-13.67 9.6-14.87 11.2c-1.36 1.76-1.35 5.41 0.48 6.71l5.59 4c3.48 2.48 10.02 3.72 13.28 0.96l14.87-12.63c1.81-1.54 2.74-5.58 1.12-7.04-1.15-1.77-3.62-3.9-6.72-4.8z"
     transform="matrix(1.1152 0 0 1.1152 -8.7922 -1.6897)" />
  <path
     id="path1160"
     sodipodi:nodetypes="czzzzzc"
     style="fill-rule:evenodd;stroke-width:1pt;fill:url(#linearGradient1171)"
     d="m142.35 121.14l-16.44 12.46c-2.94 2.22-7.26 0.52-9.63 0.17s-4.39-1.89-4.15-1.44c0.24 0.46 2.95 3.39 5.59 4.16s7.23 2.4 9.79-0.33c2.55-2.74 17.72-12.62 14.84-15.02z"
     transform="matrix(1.1152 0 0 1.1152 -8.7922 -1.6897)" />
  <path
     id="path1403"
     sodipodi:nodetypes="cczc"
     style="fill-rule:evenodd;stroke-width:1pt;fill:url(#linearGradient1404)"
     d="m132.11 127.52c3.2-4.64-11.99-14.39-23.02-0.48 1.11 3.68 7.72 5.56 12.73 5.3 4.86-0.26 7.68-2.37 10.29-4.82z"
     transform="matrix(1.1152 0 0 1.1152 -8.7922 -1.6897)" />
  <path
     id="path1519"
     sodipodi:nodetypes="cccccccc"
     style="fill-rule:evenodd;stroke-width:1.0855;fill:url(#linearGradient1166)"
     d="m138.63 112.68c-2.63 0.55-6.31 1.75-8.75 3.7-1.11-0.7-4.55-1.81-6.21-2.54l-0.42 0.27c6.42 3.12 13.19 3.8 12.63 8.77 0.46 0.11 1.18 0.22 0.85-0.49-0.31-3.49-4.22-5.16-5.7-5.57 2.14-2.55 5.23-3.11 7.6-4.14z"
     transform="matrix(1.1152 0 0 1.1152 -8.7922 -1.6897)" />
  <path
     id="path1143"
     sodipodi:nodetypes="czzzzzzzz"
     style="fill-rule:evenodd;stroke-width:1pt;fill:url(#linearGradient1144)"
     d="m18.892 106.48c-0.914 1.84 0.282 5.08 3.372 5.08h82.756c1.64 0 4.12-2.29 3.37-3.87l-6.97-14.735c-0.53-1.136-1.735-1.692-2.92-1.692h-70.392c-0.977 0-2.011 0.766-2.473 1.692l-6.743 13.525z"
     transform="matrix(1.1152 0 0 1.1152 -8.7922 -1.6897)" />
  <metadata
     id="metadata61">
    <rdf:RDF>
      <cc:Work>
        <dc:format>image/svg+xml</dc:format>
        <dc:type
           rdf:resource="http://purl.org/dc/dcmitype/StillImage" />
        <cc:license
           rdf:resource="http://creativecommons.org/licenses/publicdomain/" />
        <dc:publisher>
          <cc:Agent
             rdf:about="http://openclipart.org/">
            <dc:title>Openclipart</dc:title>
          </cc:Agent>
        </dc:publisher>
        <dc:title>Computer</dc:title>
        <dc:date>2009-04-27T09:03:46</dc:date>
        <dc:description>A Computer by Andrew Fitzsimon. Etiquette Icon set. From 0.18 OCAL database.</dc:description>
        <dc:source>https://openclipart.org/detail/25340/computer-by-anonymous-25340</dc:source>
        <dc:creator>
          <cc:Agent>
            <dc:title>Anonymous</dc:title>
          </cc:Agent>
        </dc:creator>
        <dc:subject>
          <rdf:Bag>
            <rdf:li>computer</rdf:li>
            <rdf:li>desktop</rdf:li>
            <rdf:li>etiquette</rdf:li>
            <rdf:li>gnome</rdf:li>
            <rdf:li>hardware</rdf:li>
            <rdf:li>icon</rdf:li>
            <rdf:li>workstation</rdf:li>
          </rdf:Bag>
        </dc:subject>
      </cc:Work>
      <cc:License
         rdf:about="http://creativecommons.org/licenses/publicdomain/">
        <cc:permits
           rdf:resource="http://creativecommons.org/ns#Reproduction" />
        <cc:permits
           rdf:resource="http://creativecommons.org/ns#Distribution" />
        <cc:permits
           rdf:resource="http://creativecommons.org/ns#DerivativeWorks" />
      </cc:License>
    </rdf:RDF>
  </metadata>
</svg>
